<!DOCTYPE svg PUBLIC "-//W3C//DTD SVG 1.1//EN" "http://www.w3.org/Graphics/SVG/1.1/DTD/svg11.dtd">
<!-- Uploaded to: SVG Repo, www.svgrepo.com, Transformed by: SVG Repo Mixer Tools -->
<svg width="64px" height="64px" viewBox="0 0 24.00 24.00" fill="none" xmlns="http://www.w3.org/2000/svg" stroke="#3778c2" transform="matrix(-1, 0, 0, 1, 0, 0)" stroke-width="0.00024000000000000003">
<g id="SVGRepo_bgCarrier" stroke-width="0"/>
<g id="SVGRepo_tracerCarrier" stroke-linecap="round" stroke-linejoin="round" stroke="#000000" stroke-width="0.048"/>
<g id="SVGRepo_iconCarrier"> <path fill-rule="evenodd" clip-rule="evenodd" d="M14.2322 5.76777C15.2085 4.79146 16.7915 4.79146 17.7678 5.76777L18.4749 6.47487C19.4512 7.45118 19.4512 9.0341 18.4749 10.0104L10.3431 18.1421L7.10051 18.1421C6.54822 18.1421 6.1005 17.6944 6.10051 17.1421L6.10051 13.8995L14.2322 5.76777ZM16.3536 7.18198L17.0607 7.88909C17.2559 8.08435 17.2559 8.40093 17.0607 8.59619L16 9.65685L14.5858 8.24264L15.6464 7.18198C15.8417 6.98672 16.1583 6.98672 16.3536 7.18198ZM14.5858 11.0711L9.51472 16.1421L8.10051 16.1421L8.10051 14.7279L13.1716 9.65685L14.5858 11.0711Z" fill="#3778c2"/> </g>
</svg>